<?xml version="1.0" encoding="utf-8"?>
<!-- Generator: Adobe Illustrator 16.0.0, SVG Export Plug-In . SVG Version: 6.00 Build 0)  -->
<!DOCTYPE svg PUBLIC "-//W3C//DTD SVG 1.1//EN" "http://www.w3.org/Graphics/SVG/1.1/DTD/svg11.dtd">
<svg version="1.1" id="Layer_1" xmlns="http://www.w3.org/2000/svg" xmlns:xlink="http://www.w3.org/1999/xlink" x="0px" y="0px"
	 width="223.325px" height="101px" viewBox="0 0 223.325 101" enable-background="new 0 0 223.325 101" xml:space="preserve">
<path fill="#940D00" d="M7.219,52.871c0,0,35.398-2.522,45.124-5.074c9.726-2.552,38.896-12.135,55.427,2.566
	c6.079,3.645,4.86,1.95,9.235-1.087c10.941-8.14,22.188-10.688,59.266-1.819c37.075,8.869,40.055,5.47,40.055,5.47V94H7.229
	L7.219,52.871z"/>
<g>
	<path fill="#FFFFFF" d="M3.406,24.891l-0.625,0.438L2,25.078l0.656-0.5L3.406,24.891z M27.094,26.953l-0.313,1.344l-0.125,1.781
		l-0.406,1.719l0.188,1.281l0.125,1.875l-0.375,1.25v1.75l-0.75,1.469l-0.594,1.469l-2.313,3.781l-1.063,0.875l-1.406,0.969
		l-1.406,0.531l-2.969,0.375l-1.656-0.188l-1.344,0.188l-0.844,0.063l-0.625-0.25l-0.313-0.25l-0.344-0.469l0.344-0.875l0.75-0.906
		l0.969-0.313l0.563,0.188l1.156-0.906l1.094-0.438l1.156-0.125l0.969-0.781l1.094-0.438l1-0.594l1.094-1.281l0.906-1.469
		l0.875-1.219L23,36.141l-0.188-1.406l0.25-1.281l-0.25-1.063l-0.219-1.094L23,30.016l-0.125-0.969l0.313-1.281l-0.125-1.531
		l-0.313-1.469l-0.469-2l-0.563-1.844l-0.531-0.844l-0.125-1.063l-0.688-1.219l-0.969-0.906l-1.094-0.563l-2.344,0.125l-1.438,0.438
		l-0.688,0.906l-0.25,1.406l-0.469,1.281l-0.375,1.656l-0.313,1.469l-0.25,1.719l-0.281,1.031l-0.188,0.844l0.188,1.219l0.281,1.125
		l-0.656,0.594l0.313,0.688l-0.25,0.906v1.219l-0.375,0.969l-0.063,1.406v1.031l-0.313,1l-0.281,0.781v0.969l-0.188,1.156
		l-0.438,1.594v0.813l-0.063,2.063l-0.063,0.969l0.063,0.938l0.25,1.219l0.438,0.594l-0.063,0.75l-0.375,0.844l-0.563,0.125
		l-0.594-0.125l-0.438-0.25l-0.25-0.344l-0.313-0.688l-0.281-1.656l-0.063-1.281l0.063-1.344l-0.063-1.344v-0.969l0.25-1.719
		l0.156-1.75l0.313-1.531l0.125-1.219l0.25-1.281v-1.719l0.125-1.969l0.25-1.75l-0.25-0.938l-0.125-1.5l0.188-1.906l0.469-1.531
		v-1.219l0.438-2.25v-1.219l-0.25-0.938l0.063-0.844l-0.531-0.625l-0.25-0.844l-0.125-0.719l0.188-1.219L9.5,12.922l1.406-0.5
		l1.344-0.656l1.469-0.438l1.406-0.063h0.969l2.406,0.5l1.094,0.125l0.844,0.469l0.188,0.438l0.969,0.188l0.938,0.844l0.844,0.688
		l0.656,1.344l0.563,1.031l0.375,1.219l0.469,0.906l0.438,1.281l0.563,1.531l0.219,1.219l0.125,1.469l0.313,1.219V26.953z
		 M18.656,21.891l-0.344,0.313l-1.156,0.125l-0.5-0.688l1.656-0.156L18.656,21.891z"/>
	<path fill="#FFFFFF" d="M60.188,54.328L60,54.453h-0.469l-0.5-0.25l-0.656-0.375l-1.656-1.219l-1.156-1.031l-1.219-1.531
		l-0.938-1.281l-0.781-1.344l-0.969-1.031l-1.344-1.656l-1.531-1.469l-1.406-1.281l-1.094-1.406l-1.594-1.875l-1.156-1.719
		l-1.219-1.531l-1.156-1.406l-1.344-1.156l-1.469-0.844h-1.406l-0.063,0.906l-0.438,1.469l-0.375,2.313L36,38.141l-0.344,1.219
		l-0.438,3.25l-0.125,1.875v1.156l-0.188,2.625v0.625l0.313,0.5l0.5,0.594L36,50.797l-0.156,0.469l-0.313,0.438l-0.563,0.25
		l-0.594-0.125l-0.438-0.375l-0.313-0.5l-0.781-1.281l-0.125-1.563v-1.906l0.125-3l0.313-1.219l0.156-0.781v-1.531l0.188-0.906
		l0.188-0.938l0.063-1.031l0.313-1.344l0.125-1.469l0.313-1.594l0.094-1.688l0.313-1.063l0.063-1.219v-1.469l0.188-1.5l0.063-1.594
		l0.625-3.313l0.219-1.219v-1.219l0.063-1.719l0.438-1.156l0.375-1.094l-0.25-1.094l0.25-1.156l-0.5-1.219l0.188-1l0.5-0.906
		l1.344-0.125l1.344-0.906l1.281-0.188l1.813-0.063l1.906,0.063l2.125,0.188l1.031,0.438l0.875,0.344l0.906,0.688l1.031,0.969
		l0.625,1.156l0.656,1.219l0.563,1.594v1.031l0.563,1.219l-0.063,1.406l0.156,0.688l-0.156,1.406l-0.25,1.219l-0.188,1.406
		l-0.063,1.281l-0.25,1.094l-0.594,1.344l-0.875,1.094L50,27.953l-0.969,0.781l-0.938,0.5l-0.906,0.594v1.219l0.313,0.938
		l0.375,0.969l0.219,0.906l0.875,2.156l1.344,2.25l0.594,1.031l0.563,1.281l0.906,1.656l0.5,1.031l0.844,1.219l0.438,1.344
		l0.531,1.219l0.813,1.281l0.656,1.063l1,1.219l1.219,1.156l0.844,0.906l0.625,0.813l0.281,0.406L60.188,54.328z M47.469,18.547
		l-0.438-1.344l0.313-1.344l-0.313-0.563v-2.375l-0.653-0.969l-1.276-0.375l-1.058-0.438l-0.529,0.25l-0.436-0.063l-1.991,0.688
		l-0.374,0.594l-0.249,0.75l-0.249,1.031l-0.249,1.344v1.156l-0.719,3.313l-0.625,1.625l-0.406,1.344l-0.125,1.531l0.125,0.75
		l-0.125,1.031l0.654,0.531l0.935,0.25l0.841-0.469l1.526-0.375l1.993-0.375l1.059-0.719l1.152-0.938l0.405-0.969l-0.218-0.594
		l0.218-0.625v-1.156l0.062-1.094L47.469,18.547z M39.375,37.234l-0.063,0.469l-0.5-0.156l-0.063-0.313l0.5-0.438L39.375,37.234z
		 M46.906,16.766l-0.531,0.313l-0.313-0.438l0.313-0.531l0.531,0.219V16.766z"/>
	<path fill="#FFFFFF" d="M86.188,14.828l-0.063,0.594l-0.469,0.188h-0.438l-0.906-0.375L83.5,14.828h-2.188l-1.469,0.469
		l-1.656,0.313l-2.063,1.031l-1.406,0.25h-0.906l-0.875,0.375l-2.375,0.063h-2l-2.094,0.188l-1.813,0.344l-0.938,0.313l-0.594,0.969
		l-0.25,1.063l-0.188,1.625l-0.125,1.594l-0.313,2.75l0.063,0.563l-0.281,1.813l0.281,0.188l0.5-0.125l0.781-0.313l1.063-0.969
		l0.969-0.375h2.063l2.688,0.063l1.719,0.125l0.313,0.25l0.531,0.438h1.594l0.563,0.375l0.594-0.063l1.219,0.406l1.281,0.188
		l0.063,0.313l-0.219,0.25l-0.75,0.531h-0.719L76,29.703l-2.125-0.063l-2.344,0.375l-2.188,0.25l-2,0.313l-1.969,0.125l-1.594,0.594
		l-1.531-1.094l-0.219,1.719l0.094,1.219l0.125,1.531l0.375,1.688l0.563,1.844l0.594,1.656l1.781,2.5l0.969,1.094l1.344,0.844
		l1.344,0.688l1.656,0.844l2,0.25l2.094,0.375l1.594,0.375l1.031-0.063l0.906,0.281l2.438,0.375l0.5,0.438l-0.125,0.469
		l-0.188,0.563l-0.719,0.125l-1.531-0.188l-1.594,0.063l-2.5,0.125l-1.719-0.125l-1.281-0.438l-0.594,0.063l-0.875-0.188
		l-1.75-0.469l-1.156-0.25l-0.875-0.781l-0.969-0.625l-0.844-0.656l-0.875-1.469l-0.969-1.531l-0.188-1.406l0.188-0.969l-0.75-1.406
		l-0.219-1.531l-0.563-0.813l-0.125-1.813l-0.313-1.156l0.188-1.188l-0.344-1.75l0.344-1.156l-0.469-0.813l0.219-0.344l-0.094-0.938
		l0.344-1.031l-0.188-1.031l0.5-1.094l-0.188-1.469v-1.156l0.438-0.75l-0.125-1.094l0.25-0.625l-0.125-1.156l-0.563-0.656
		l-1.156-1.156l-0.063-0.625l0.063-1.094l0.25-1.406l0.438-1.031l1.156-0.75l1.031-0.344l0.781-0.313l1.344,0.375l1.469,0.719
		l1.906,0.063l2.625-0.063l3.469-0.125h2.031l1.594,0.438l1.625,0.125l1.219,0.188L82,12.547l0.844,0.25h0.563l1.219,0.688
		l1.031,0.656L86.188,14.828z M65.625,46.984L65.5,47.422l-0.563-0.063v-0.531l0.438-0.313L65.625,46.984z"/>
	<path fill="#FFFFFF" d="M87.094,46.766l-0.281,0.125L86.5,46.766v-0.313l0.188-0.125l0.344,0.063l0.063,0.188V46.766z
		 M116.125,52.297l-0.25,0.313l-0.5,0.188l-0.188-0.313l-0.344-0.467l-0.437-0.874l-0.625-0.842l-0.905-1.591l-0.655-1.528
		l-0.25-1.092l-0.438-0.593l-0.779-2.214l-0.625-0.78l-0.5-1.154l-0.718-1.154l-0.562-0.499l-1.343-1.466l-0.281-0.842l-1.063-0.749
		l-1.345-0.25l-1.438,0.187l-1.47,0.248l-1.063,0.435l-1.157,1.025l-1.094,0.559l-0.25,0.528l-0.844,0.621l-1.782,1.025
		l-0.344,0.373l-0.25,1.406v0.906l-0.439,0.5v1.094L94,46.453l0.188,1.875L94,49.609l-0.375,1.344l-0.594,1.063l-0.688,0.844
		l-1.156,1.031l-1.094,0.188l-1.031,0.125l-0.313-0.25h-0.594l-0.438-0.531l-0.313-0.25v-0.625l-0.313-0.469v-1.281l0.313-0.813
		l-0.063-0.719l0.188-0.438l0.375-0.188v-0.594l0.594-0.313l0.25-0.563l0.375-0.781l0.531-0.25l0.5-1.156l0.188-1.281l0.313-0.188
		l-0.125-0.844l0.25-1.281v-0.813l-0.563-1.219l-0.375-1.094l-0.125-1.219l-0.063-0.844l0.188-0.25l-0.125-0.438v-0.25l0.938-1.156
		v-0.375l0.531-0.594l0.688-1.094l0.844-1.219l0.188-0.875l0.063-0.656l-0.063-0.5l0.313-1.594l0.25-1.531L94,23.734l0.125-1.094
		l0.25-0.5l-0.063-1.656l-0.125-1.469l0.125-1.406l0.5-1.156l0.469-0.906l0.563-0.438l0.188-0.844l0.406-0.563l0.188-0.531
		l-0.188-0.375l0.125-0.844l-0.469-1l0.125-1.031l-0.375-0.469l0.188-0.813h0.406l0.688-0.531L97.5,8.047l0.281-0.5l1-0.125
		l0.844,0.375l0.719,1.094l0.313,0.188l0.5,0.969l0.594,1.156l0.25,1.094l0.563,1.25l0.719,0.969l0.063,0.531l0.5,0.563l0.313,0.656
		l0.594,0.813l-0.063,0.781l0.563,1.156l0.063,0.5l0.344,0.625l0.313,1.094l0.5,0.906l0.188,1.531l0.281,1.094l0.375,1.531v0.563
		l0.313,0.844l0.438,1.469l0.406,1.344l0.125,1.094l0.313,0.781l0.844,0.563l1,0.313l1.219-0.063h1.156l1.156,0.25l0.188,0.344
		l0.25,0.313l-0.25,0.188l-0.188,0.313l-0.5,0.531l-0.656,0.063l-0.25,0.313l-0.969,0.188l-1.094,0.5l-0.438,0.406v0.75l0.188,0.906
		l0.406,0.906l0.5,0.875l0.438,1.281l0.313,0.781l0.406,1.219l0.438,1.094l0.656,1.344l0.438,1.125l0.25,1.75l0.313,0.188
		l0.406,0.906l0.438,0.875v0.531l0.313,0.313L116.125,52.297z M88.219,55.109l-0.063,0.25l-0.438-0.063l-0.188-0.469l0.313-0.063
		h0.375V55.109z M91.063,31.047L91,31.359l-0.281,0.188l-0.375-0.25v-0.313l0.313-0.344L91,30.516l0.063,0.188V31.047z
		 M104.448,32.047l-0.281-0.688l-0.625-1.156l-0.125-1.094l-0.312-0.5l-0.219-0.656l-0.375-0.625l0.063-1.656l-0.812-1.094
		l0.25-0.469l-0.312-0.75l-0.406-2.25l-0.5-1.031l-0.063-0.813l-0.718-0.906l-0.25-0.5l-0.625-1.344l-1.285,1.281l0.125,0.813
		l-0.47,0.719v0.75l-0.125,0.406l-0.25,1.281l-0.125,1.125v0.344l-0.313,0.438v0.906l-0.125,1.781v0.844l-0.345,0.75l0.219,0.781
		L96.1,29.703l0.532,0.75l1.469,0.656l1.532,0.563l1.282,0.719l0.719,0.5l1.25,0.25l0.844-0.188l0.25-0.188L104.448,32.047z
		 M101.406,32.172l-0.375,0.094l-0.313-0.219l0.063-0.25h0.313l0.188-0.125l0.125,0.188V32.172z M115.625,33.859l-0.063,0.25
		l-0.25,0.125h-0.188v-0.188l0.063-0.25l0.125-0.063L115.625,33.859z M116.188,54.578c-0.021,0.041-0.125,0.083-0.313,0.125
		l-0.188-0.063l-0.063-0.188l0.188-0.188l0.313,0.063L116.188,54.578z"/>
	<path fill="#FFFFFF" d="M117.219,24.891l-0.625,0.438l-0.781-0.25l0.656-0.5L117.219,24.891z M140.906,26.953l-0.313,1.344
		l-0.125,1.781l-0.406,1.719l0.188,1.281l0.125,1.875L140,36.203v1.75l-0.75,1.469l-0.594,1.469l-2.313,3.781l-1.063,0.875
		l-1.406,0.969l-1.406,0.531l-2.969,0.375l-1.656-0.188l-1.344,0.188l-0.844,0.063l-0.625-0.25l-0.313-0.25l-0.344-0.469
		l0.344-0.875l0.75-0.906l0.969-0.313L127,44.609l1.156-0.906l1.094-0.438l1.156-0.125l0.969-0.781l1.094-0.438l1-0.594l1.094-1.281
		l0.906-1.469l0.875-1.219l0.469-1.219l-0.188-1.406l0.25-1.281l-0.25-1.063l-0.219-1.094l0.406-1.281l-0.125-0.969L137,27.766
		l-0.125-1.531l-0.313-1.469l-0.469-2l-0.563-1.844L135,20.078l-0.125-1.063l-0.688-1.219l-0.969-0.906l-1.094-0.563l-2.344,0.125
		l-1.438,0.438l-0.688,0.906l-0.25,1.406l-0.469,1.281l-0.375,1.656l-0.313,1.469L126,25.328l-0.281,1.031l-0.188,0.844l0.188,1.219
		L126,29.547l-0.656,0.594l0.313,0.688l-0.25,0.906v1.219l-0.375,0.969l-0.063,1.406v1.031l-0.313,1l-0.281,0.781v0.969
		l-0.188,1.156l-0.438,1.594v0.813l-0.063,2.063l-0.063,0.969l0.063,0.938l0.25,1.219l0.438,0.594l-0.063,0.75l-0.375,0.844
		l-0.563,0.125l-0.594-0.125l-0.438-0.25l-0.25-0.344l-0.313-0.688l-0.281-1.656l-0.063-1.281l0.063-1.344l-0.063-1.344v-0.969
		l0.25-1.719l0.156-1.75l0.313-1.531l0.125-1.219l0.25-1.281v-1.719l0.125-1.969l0.25-1.75l-0.25-0.938l-0.125-1.5l0.188-1.906
		l0.469-1.531v-1.219l0.438-2.25v-1.219l-0.25-0.938l0.063-0.844l-0.531-0.625l-0.25-0.844l-0.125-0.719l0.188-1.219l0.594-0.563
		l1.406-0.5l1.344-0.656l1.469-0.438l1.406-0.063h0.969l2.406,0.5l1.094,0.125l0.844,0.469l0.188,0.438l0.969,0.188l0.938,0.844
		l0.844,0.688l0.656,1.344l0.563,1.031l0.375,1.219l0.469,0.906l0.438,1.281l0.563,1.531l0.219,1.219l0.125,1.469l0.313,1.219
		V26.953z M132.469,21.891l-0.344,0.313l-1.156,0.125l-0.5-0.688l1.656-0.156L132.469,21.891z"/>
	<path fill="#FFFFFF" d="M167.906,9.609l-0.188,0.75l-0.563,0.594l-0.594,0.375l-0.75,0.063l-2.125-0.25l-1.594-0.469h-1.344
		l-0.906,0.281l-0.969,0.5l-0.938,0.375l-0.281,0.375l-0.625,0.281l-1.594,1.219l-0.781,0.813l-0.5,0.906l-0.375,1.031l-0.594,1.063
		l-0.125,1.156l0.125,1.406l-0.313,1.281l-0.25,1.469l-0.125,1.5v1.406l-0.156,1.063l0.344,0.656l0.625,0.375l1.219,0.25l2.063-0.25
		h1.219l1.063,0.25l1.406,0.219l0.656,0.313l0.906-0.188l0.813,0.313l0.125,0.75l-1,0.594h-2.375l-1.75-0.063h-2.406l-1.156,0.25
		l-1.219-0.125l-0.531,0.563l-0.063,0.906l-0.75,0.781l-0.719,0.563l-0.125,0.906l0.125,1l0.125,2.375l0.219,1.938l0.063,1.906
		v2.188l0.063,2.375l0.313,2.219l0.125,1.938l0.563,1.219l0.406,0.938v1.156l-0.406,0.906l-0.188,0.563l-0.375,0.406l-0.438,0.125
		l-0.469-0.281l-1-0.938l-0.656-0.781l-0.5-1.156l-0.125-1.156l0.313-0.75l0.5-0.719l-0.188-2.156l-0.313-3.156l-0.063-2.344
		l-0.125-2.25l-0.188-1.469L148,36.203v-1.719l-0.313-1.281l-0.125-2.156l-0.438-4.375l0.188-1.781l-0.344-4.594v-1.688l0.156-1.469
		l0.438-1.719l-0.188-1.031l0.5-1.469l0.375-1.906l0.656-1.031L150,9.516h1.281l0.563-0.313l0.656-0.063l0.375-0.5l0.906-0.594
		l0.938-0.563L156,6.453l0.594-0.813l0.875-0.594l0.906-0.375h1.031l1.281,0.375l0.813,0.656l2.813,0.625l0.406,0.5l0.938,0.156
		l0.281,0.438l0.625,0.625l0.719,0.219l0.438,0.625L167.906,9.609z"/>
	<path fill="#FFFFFF" d="M190.375,20.734l-0.125,1.906l0.063,1.094l-0.188,1.719v1.156l-0.375,1.344v1.219l-0.375,0.906l0.063,0.969
		l-0.531,1.125l0.188,0.594l-0.25,0.438l-0.188,0.969l-0.063,1.594l-0.563,1.094l-0.344,1.156l-0.25,1.219l-0.438,0.5l-0.438,1.281
		l-0.656,1.344l-0.969,1.344l-1.094,1.156l-1.188,0.969l-1.406,0.5l-1.5,0.313l-1.344,0.188h-1.656l-1.719-0.188l-1.156-0.313
		l-1.031-0.625l-1.031-0.594l-0.75-0.969l-0.594-1.063l-0.438-1.219l-0.438-1.094l-0.125-1.344l-0.188-1.281l-0.156-1.344
		l0.156-1.719v-1.406l0.125-1.563l0.313-0.875l-0.25-0.594v-0.875l0.438-0.906l0.125-1.281l-0.063-0.969l0.25-1.406l0.344-1.344
		v-1.219l0.313-1.281v-1.344l-0.656-1.063l-0.25-1.219l-0.063-0.656l0.313-1.156l0.531-0.75l0.438-0.188l1.094-0.531l1.281-0.188
		l1.219,0.25l1,0.656l0.594,0.438l0.313,0.438l0.656,0.531l0.313,0.813l-0.063,1.156l-0.656,1.156l-0.688,1.031l-0.719,1.344
		l-0.25,0.969l-0.375,1.781l-0.719,1.531l-0.438,1.719l-0.438,1.625l-0.469,1.469l-0.438,1.594l-0.063,1.781l-0.375,1.406
		l0.313,1.875l0.063,2.281l0.25,1.563l0.656,1l0.938,0.781l0.531,0.438l0.813,0.25l1.594,0.344l1.094,0.125l1.156-0.063l2.063-0.406
		l1.594-1l0.906-0.969l0.688-1.094l0.719-0.906l0.063-0.875l0.438-0.594l0.563-1.344l0.406-1.156l0.25-1.125l0.625-1.094
		l-0.063-0.656l0.063-0.625l0.531-0.656l-0.188-1.063l0.438-1.75l0.188-1.469l0.438-1.281l-0.188-1.469l0.25-1.281l0.094-1.531
		l-0.094-1.219v-1.219l0.281-0.969l-0.344-0.438l0.156-0.688l-0.156-0.781l0.063-0.719l0.094-0.875l0.125-0.906v-0.5l0.563-0.188
		l0.188,0.25l-0.188,0.875l0.125,1.344v0.719l0.188,1.719L190.375,20.734z M193.281,21.359l-0.156,0.469h-0.563l-0.25-0.594
		l0.313-0.625l0.5,0.125L193.281,21.359z"/>
	<path fill="#FFFFFF" d="M196.781,26.297l-0.063,0.375l-0.5,0.281l-0.313-0.469l0.375-0.5L196.781,26.297z M220.094,45.703
		l-0.063,0.875l-0.469,0.719l-0.25,0.563l-0.563,0.469h-0.969l-0.844,0.25L216,48.891h-1.094l-1.281-0.125l-1.469,0.25h-0.969
		l-1.094,0.313l-0.875,0.531L208,50.234l-1.156,0.719l-0.969,0.625h-1.781L203,51.391h-1.281l-1.031-0.063l-0.875-0.188
		l-0.969-0.344l-1.094,0.156l-0.719-0.219l-0.313-0.5l0.063-0.719v-0.813l0.063-0.719l0.344-0.688l-0.156-0.719l0.156-0.625
		l0.188-0.781v-0.969l0.313-1.188l0.063-1.219l-0.063-1.031l0.188-0.969L198,38.703l0.25-0.938l0.063-1.156l-0.063-0.656v-2.438
		l0.063-1.063v-1.406l0.156-1.031l0.125-1.344l0.063-0.844l-0.063-0.875l-0.125-0.906l0.125-0.844v-1.094l0.063-1l0.125-0.969
		l-0.125-0.594l0.125-0.625l0.125-0.844l-0.063-0.625l0.25-0.781l-0.313-0.688l-0.125-0.906v-1.031l-0.063-0.938l-0.125-0.969
		v-0.844l0.313-0.563l-0.469-0.531l-0.125-0.625l0.406-0.563v-0.719l0.25-0.781V8.578l0.063-0.844l-0.063-0.563l0.563-0.719
		l0.656-0.563l0.625-0.25l0.781-0.094l0.813-0.25l0.781,0.063l0.719,0.469l0.688,0.375l0.844,0.563l0.563,0.844l0.25,0.906
		l0.125,0.688L206,10.047l-0.125,0.625l-0.75,0.656l-0.469,0.75l-0.188,1.219l-0.313,0.844l-0.188,0.844l-0.188,0.875l-0.281,0.906
		v1.031l-0.313,1l-0.25,1.813v0.938l-0.313,0.844l-0.188,0.656l-0.344,0.563l-0.063,0.844l-0.188,1l-0.25,2.125v1.031l-0.313,0.875
		l-0.125,1.156l-0.281,1.094v1.031l-0.188,0.75l-0.125,0.656v0.969l-0.25,0.813l-0.063,0.844l-0.188,0.969l-0.313,1.063l0.063,0.781
		l-0.063,1.281l-0.219,0.969l-0.188,0.688v0.469l-0.125,0.688l-0.063,0.844l0.188,0.375l0.594,0.125l0.688-0.313l1.094-0.125
		l1.219-0.125h0.688l0.906,0.375h1.031l0.688-0.25l0.844-0.063l1.156-0.406l0.625-0.25l0.969,0.063l1.219,0.188l1.156-0.188
		l1.344-0.313l1.031-0.5l0.813-0.406l0.188-0.563l0.906-0.5l0.719-0.344l0.875,0.188l0.656,0.469l0.375,0.688l0.656,0.656
		l0.125,0.688l0.188,0.844V45.703z M215.469,35.391l-0.188,0.375l-0.375-0.125l-0.313-0.563l0.438-0.531l0.438,0.313V35.391z"/>
</g>
<g>
	<path d="M17.114,61.188h6.263l9.294,15.322V64.85c0-0.697-0.068-1.198-0.205-1.503c-0.137-0.304-0.342-0.535-0.615-0.692
		s-0.679-0.236-1.216-0.236h-0.527v-1.23h6.826v1.23h-0.364c-0.602,0-1.009,0.05-1.223,0.148c-0.301,0.137-0.527,0.388-0.677,0.751
		c-0.15,0.364-0.226,0.874-0.226,1.532v16.773h-1.772L21.465,63.209v14.59c0,0.811,0.024,1.305,0.073,1.48
		c0.068,0.225,0.193,0.43,0.374,0.615s0.393,0.313,0.637,0.381s0.737,0.107,1.479,0.117v1.23h-6.914v-1.23h0.366
		c0.703,0,1.179-0.068,1.428-0.205s0.442-0.371,0.579-0.703s0.205-0.895,0.205-1.686V64.85c0-0.814-0.02-1.311-0.059-1.488
		c-0.088-0.334-0.256-0.574-0.505-0.722s-0.745-0.222-1.487-0.222h-0.527V61.188z"/>
	<path d="M54.189,61.188h7.822v1.23h-0.601c-0.566,0-0.977,0.079-1.23,0.236s-0.439,0.381-0.557,0.67
		c-0.117,0.29-0.176,0.852-0.176,1.688V78.18c0,0.664,0.063,1.136,0.19,1.414s0.305,0.48,0.535,0.607s0.642,0.191,1.238,0.191h0.601
		v1.23h-7.822v-1.23h0.645c0.576,0,0.984-0.066,1.223-0.198s0.413-0.322,0.52-0.571s0.161-0.73,0.161-1.443V64.703
		c0-0.756-0.054-1.266-0.161-1.525c-0.107-0.261-0.281-0.452-0.52-0.575c-0.239-0.122-0.647-0.185-1.223-0.185h-0.645V61.188z"/>
	<path d="M95.721,61.188h1.068l1.668,6.299l-1.318,0.455c-0.879-1.992-1.89-3.414-3.032-4.264s-2.437-1.273-3.882-1.273
		c-2.08,0-3.823,0.863-5.229,2.592s-2.109,3.789-2.109,6.182c0,1.719,0.359,3.297,1.078,4.732s1.679,2.529,2.882,3.281
		s2.479,1.127,3.828,1.127c0.87,0,1.698-0.158,2.485-0.476s1.425-0.696,1.914-1.136c0.362-0.332,0.606-0.697,0.733-1.098
		c0.127-0.4,0.186-0.957,0.176-1.67v-0.967c0-0.771-0.09-1.318-0.271-1.641s-0.437-0.553-0.769-0.689
		c-0.254-0.107-0.938-0.16-2.051-0.16v-1.23h8.276v1.23h-0.674c-0.576,0-0.969,0.056-1.179,0.168s-0.364,0.285-0.461,0.52
		s-0.146,0.693-0.146,1.377v7.076h-1.45l-0.776-1.787c-0.82,0.596-1.694,1.059-2.622,1.391c-1.387,0.498-2.759,0.748-4.116,0.748
		c-2.744,0-5.095-1.009-7.053-3.025s-2.937-4.529-2.937-7.537c0-2.988,0.991-5.498,2.974-7.529s4.355-3.047,7.119-3.047
		c0.693,0,1.377,0.068,2.051,0.205s1.289,0.332,1.846,0.586c0.42,0.186,0.908,0.488,1.465,0.908L95.721,61.188z"/>
	<path d="M118.613,61.188h7.881v1.23h-0.542c-0.625,0-1.072,0.06-1.34,0.178c-0.27,0.117-0.457,0.324-0.564,0.619
		c-0.088,0.217-0.132,0.674-0.132,1.371v5.699h10.591v-5.553c0-0.756-0.024-1.213-0.073-1.371c-0.078-0.314-0.247-0.55-0.505-0.707
		c-0.26-0.157-0.652-0.236-1.18-0.236h-0.806v-1.23h7.822v1.23h-0.703c-0.547,0-0.935,0.063-1.165,0.186
		c-0.229,0.123-0.391,0.289-0.482,0.501c-0.094,0.212-0.14,0.667-0.14,1.364v13.916c0,0.771,0.049,1.263,0.146,1.473
		s0.293,0.359,0.586,0.447c0.176,0.059,0.762,0.088,1.758,0.088v1.23h-7.822v-1.23h0.571c0.723,0,1.203-0.049,1.443-0.146
		c0.238-0.096,0.393-0.252,0.461-0.465c0.059-0.165,0.088-0.684,0.088-1.557v-6.357h-10.591v6.518c0,0.771,0.052,1.266,0.153,1.48
		c0.104,0.215,0.301,0.361,0.594,0.439c0.215,0.059,0.825,0.088,1.831,0.088v1.23h-7.881v-1.23h0.498
		c0.762,0,1.237-0.042,1.429-0.125c0.189-0.083,0.342-0.242,0.453-0.477c0.113-0.234,0.169-0.648,0.169-1.244V64.469
		c0-0.639-0.052-1.082-0.153-1.327c-0.104-0.246-0.264-0.428-0.484-0.546c-0.219-0.118-0.583-0.178-1.091-0.178h-0.82V61.188z"/>
	<path d="M158.018,60.5h1.025l0.146,0.688h12.539l0.117-0.688h1.069l2.153,6.006l-1.318,0.469c-0.635-1.602-1.387-2.728-2.256-3.377
		s-1.982-0.975-3.34-0.975c-0.566,0-0.903,0.022-1.011,0.066s-0.184,0.119-0.227,0.227c-0.045,0.107-0.066,0.449-0.066,1.025v14.18
		c0,0.674,0.037,1.129,0.109,1.363c0.074,0.234,0.179,0.414,0.315,0.541s0.325,0.218,0.563,0.271
		c0.24,0.054,0.774,0.086,1.604,0.096v1.23h-7.881v-1.23c0.869-0.01,1.401-0.039,1.597-0.089c0.342-0.099,0.586-0.285,0.732-0.561
		c0.146-0.274,0.22-0.782,0.22-1.519V63.75c0-0.448-0.022-0.722-0.065-0.818c-0.045-0.098-0.127-0.174-0.25-0.228
		c-0.121-0.054-0.373-0.081-0.754-0.081c-1.064,0-1.916,0.137-2.557,0.41c-0.639,0.273-1.242,0.738-1.809,1.393
		s-1.05,1.504-1.45,2.549l-1.318-0.469L158.018,60.5z"/>
	<path d="M204.968,61.188h1.056l1.564,6.299l-1.362,0.41c-0.858-1.768-2-3.158-3.424-4.174c-1.17-0.85-2.467-1.275-3.891-1.275
		c-0.859,0-1.629,0.154-2.313,0.461c-0.683,0.308-1.194,0.705-1.535,1.191c-0.342,0.488-0.513,0.985-0.513,1.492
		c0,0.459,0.132,0.902,0.396,1.331s0.665,0.807,1.202,1.134c0.538,0.326,1.417,0.67,2.64,1.03l3.822,1.132
		c0.468,0.137,1.148,0.4,2.042,0.791s1.589,0.804,2.087,1.238c0.497,0.436,0.888,0.968,1.171,1.598
		c0.283,0.631,0.425,1.313,0.425,2.045c0,1.623-0.711,3.042-2.131,4.259c-1.422,1.217-3.26,1.825-5.516,1.825
		c-1.162,0-2.202-0.169-3.12-0.506s-1.909-0.936-2.974-1.795l-0.674,1.949h-1.027l-1.36-7.34l1.362-0.277
		c0.498,1.357,1.16,2.51,1.984,3.457c0.826,0.947,1.738,1.662,2.74,2.146c1,0.483,2.019,0.726,3.054,0.726
		c1.406,0,2.637-0.426,3.691-1.275c0.879-0.713,1.318-1.553,1.318-2.52c0-0.889-0.317-1.615-0.952-2.182
		c-0.645-0.566-1.797-1.094-3.457-1.582l-3.662-1.055c-2.051-0.596-3.496-1.357-4.336-2.285s-1.26-1.992-1.26-3.193
		c0-0.938,0.273-1.805,0.82-2.601s1.387-1.462,2.52-1.999s2.373-0.807,3.721-0.807c1.133,0,2.217,0.195,3.252,0.586
		c0.732,0.273,1.406,0.664,2.021,1.172L204.968,61.188z"/>
</g>
</svg>
